<svg width="54" height="35" viewBox="0 0 54 35" fill="none" xmlns="http://www.w3.org/2000/svg">
<circle cx="38.5" cy="8.5" r="7" stroke="black" stroke-width="3"/>
<path fill-rule="evenodd" clip-rule="evenodd" d="M46.8681 10C46.9548 9.51309 47 9.01183 47 8.5C47 7.98817 46.9548 7.48691 46.8681 7L52.5 7C53.3284 7 54 7.67157 54 8.5C54 9.32843 53.3284 10 52.5 10H46.8681ZM30.1319 10H1.5C0.671573 10 0 9.32843 0 8.5C0 7.67157 0.671573 7 1.5 7L30.1319 7C30.0452 7.48691 30 7.98817 30 8.5C30 9.01183 30.0452 9.51309 30.1319 10Z" fill="black"/>
<circle cx="16.5" cy="26.5" r="7" stroke="black" stroke-width="3"/>
<path fill-rule="evenodd" clip-rule="evenodd" d="M24.8681 28C24.9548 27.5131 25 27.0118 25 26.5C25 25.9882 24.9548 25.4869 24.8681 25L52.5 25C53.3284 25 54 25.6716 54 26.5C54 27.3284 53.3284 28 52.5 28H24.8681ZM8.13193 28H1.5C0.671573 28 0 27.3284 0 26.5C0 25.6716 0.671573 25 1.5 25L8.13193 25C8.04524 25.4869 8 25.9882 8 26.5C8 27.0118 8.04524 27.5131 8.13193 28Z" fill="black"/>
</svg>
