<svg width="38" height="54" viewBox="0 0 38 54" fill="none" xmlns="http://www.w3.org/2000/svg">
<path d="M29.0762 17.6247H29.0762V17.6157C29.0762 12.1361 24.5315 7.77706 19 7.77706C13.4685 7.77706 8.9238 12.1361 8.9238 17.6157C8.9238 23.0953 13.4685 27.4543 19 27.4543C24.5123 27.4543 29.0435 23.0624 29.0762 17.6247ZM1.5 18.4737C1.5 9.12606 9.2819 1.5 19 1.5C28.6877 1.5 36.4739 9.12389 36.5 18.4762C36.4993 20.7468 35.6219 24.03 34.1286 27.8052C32.6525 31.537 30.6389 35.593 28.508 39.3473C26.3759 43.1037 24.1482 46.5198 22.2565 48.9784C21.3069 50.2125 20.4705 51.168 19.7959 51.7999C19.4571 52.1172 19.1936 52.3201 19.0061 52.4351C19.0056 52.4354 19.0052 52.4356 19.0048 52.4359C18.8172 52.3185 18.5535 52.1113 18.2144 51.7876C17.5386 51.1425 16.7011 50.1682 15.7507 48.9124C13.8574 46.4109 11.6283 42.9431 9.49479 39.1512C7.36252 35.3613 5.34741 31.2859 3.87015 27.5758C2.37255 23.8147 1.5 20.6033 1.5 18.4737Z" stroke="black" stroke-width="3"/>
</svg>
