<svg width="22" height="20" viewBox="0 0 22 20" fill="none" xmlns="http://www.w3.org/2000/svg">
<path d="M11.1937 19.3501L11.1925 19.3507C11.0778 19.4141 10.9396 19.4195 10.8032 19.3483C9.7622 18.7699 7.20336 17.258 4.90118 15.163C2.57097 13.0425 0.637151 10.4451 0.6 7.70718V7.70705V7.70668V7.7063V7.70593V7.70556V7.70519V7.70481V7.70444V7.70407V7.70369V7.70332V7.70295V7.70258V7.7022V7.70183V7.70146V7.70108V7.70071V7.70034V7.69997V7.69959V7.69922V7.69885V7.69848V7.6981V7.69773V7.69736V7.69698V7.69661V7.69624V7.69587V7.69549V7.69512V7.69475V7.69437V7.694V7.69363V7.69326V7.69288V7.69251V7.69214V7.69176V7.69139V7.69102V7.69065V7.69027V7.6899V7.68953V7.68916V7.68878V7.68841V7.68804V7.68766V7.68729V7.68692V7.68655V7.68617V7.6858V7.68543V7.68505V7.68468V7.68431V7.68394V7.68356V7.68319V7.68282V7.68245V7.68207V7.6817V7.68133V7.68095V7.68058V7.68021V7.67984V7.67946V7.67909V7.67872V7.67834V7.67797V7.6776V7.67723V7.67685V7.67648V7.67611V7.67573V7.67536V7.67499V7.67462V7.67424V7.67387V7.6735V7.67313V7.67275V7.67238V7.67201V7.67163V7.67126V7.67089V7.67052V7.67014V7.66977V7.6694V7.66902V7.66865V7.66828V7.66791V7.66753V7.66716V7.66679V7.66641V7.66604V7.66567V7.6653V7.66492V7.66455V7.66418V7.66381V7.66343V7.66306V7.66269V7.66231V7.66194V7.66157V7.6612V7.66082V7.66045V7.66008V7.6597V7.65933V7.65896V7.65859V7.65821V7.65784V7.65747V7.65709V7.65672V7.65635V7.65598V7.6556V7.65523V7.65486V7.65449V7.65411V7.65374V7.65337V7.65299V7.65262V7.65225V7.65188V7.6515V7.65113V7.65076V7.65038V7.65001V7.64964V7.64927V7.64889V7.64852V7.64815V7.64778V7.6474V7.64703V7.64666V7.64628V7.64591V7.64554V7.64517V7.64479V7.64442V7.64405V7.64367V7.6433V7.64293V7.64256V7.64218V7.64181V7.64144V7.64106V7.64069V7.64032V7.63995V7.63957V7.6392V7.63883V7.63846V7.63808V7.63771V7.63734V7.63696V7.63659V7.63622V7.63585V7.63547V7.6351V7.63473V7.63435V7.63398V7.63361V7.63324V7.63286V7.63249V7.63212V7.63174V7.63137V7.631V7.63063V7.63025V7.62988V7.62951V7.62914V7.62876V7.62839V7.62802V7.62764V7.62727V7.6269V7.62653V7.62615V7.62578V7.62541V7.62503V7.62466V7.62429V7.62392V7.62354V7.62317V7.6228V7.62243V7.62205V7.62168V7.62131V7.62093V7.62056V7.62019V7.61982V7.61944V7.61907V7.6187V7.61832V7.61795V7.61758V7.61721V7.61683V7.61646V7.61609V7.61572V7.61534V7.61497V7.6146V7.61422V7.61385V7.61348V7.61311V7.61273V7.61236V7.61199V7.61161V7.61124V7.61087V7.6105V7.61012V7.60975V7.60938V7.609V7.60863V7.60826V7.60789V7.60751V7.60714V7.60677V7.60639V7.60602V7.60565V7.60528V7.6049V7.60453V7.60416V7.60379V7.60341V7.60304V7.60267V7.60229V7.60192V7.60155V7.60118V7.6008V7.60043V7.60006V7.59968V7.59931V7.59894V7.59857V7.59819V7.59782V7.59745V7.59707V7.5967V7.59633V7.59596V7.59558V7.59521V7.59484V7.59447V7.59409V7.59372V7.59335V7.59297V7.5926V7.59223V7.59186V7.59148V7.59111V7.59074V7.59036V7.58999V7.58962V7.58925V7.58887V7.5885V7.58813V7.58776V7.58738V7.58701V7.58664V7.58626V7.58589V7.58552V7.58515V7.58477V7.5844V7.58403V7.58365V7.58328V7.58291V7.58254V7.58216V7.58179V7.58142V7.58104V7.58067V7.5803V7.57993V7.57955V7.57918V7.57881V7.57844V7.57806V7.57769V7.57732V7.57694V7.57657V7.5762V7.57583V7.57545V7.57508V7.57471V7.57433V7.57396V7.57359V7.57322V7.57284V7.57247V7.5721V7.57172V7.57135V7.57098V7.57061V7.57023V7.56986V7.56949V7.56912V7.56874V7.56837V7.568V7.56762V7.56725V7.56688V7.56651V7.56613V7.56576V7.56539V7.56501V7.56464V7.56427V7.5639V7.56352V7.56315V7.56278V7.56241V7.56203V7.56166V7.56129V7.56091V7.56054V7.56017V7.5598V7.55942V7.55905V7.55868V7.5583V7.55793V7.55756V7.55719V7.55681V7.55644V7.55607V7.5557V7.55532V7.55495V7.55458V7.5542V7.55383V7.55346V7.55309V7.55271V7.55234V7.55197V7.55159V7.55122V7.55085V7.55048V7.5501V7.54973V7.54936V7.54898V7.54861V7.54824V7.54787V7.54749V7.54712V7.54675V7.54637V7.546V7.54563V7.54526V7.54488V7.54451V7.54414V7.54377V7.54339V7.54302V7.54265V7.54227V7.5419V7.54153V7.54116V7.54078V7.54041V7.54004V7.53966V7.53929V7.53892V7.53855V7.53817V7.5378V7.53743V7.53706V7.53668V7.53631V7.53594V7.53556V7.53519V7.53482V7.53445V7.53407V7.5337V7.53333V7.53295V7.53258V7.53221V7.53184V7.53146V7.53109V7.53072V7.53034V7.52997V7.5296V7.52923V7.52885V7.52848V7.52811V7.52774V7.52736V7.52699V7.52662V7.52624V7.52587V7.5255V7.52513V7.52475V7.52438V7.52401V7.52363V7.52326V7.52289V7.52252V7.52214V7.52177V7.5214V7.52103V7.52065V7.52028V7.51991V7.51953V7.51916V7.51879V7.51842V7.51804V7.51767V7.5173V7.51692V7.51655V7.51618V7.51581V7.51543V7.51506V7.51469V7.51431V7.51394V7.51357V7.5132V7.51282V7.51245V7.51208V7.51171V7.51133V7.51096V7.51059V7.51021V7.50984V7.50947V7.5091V7.50872V7.50835V7.50798V7.5076V7.50723V7.50686V7.50649V7.50611V7.50574V7.50537V7.50499V7.50462V7.50425V7.50388V7.5035V7.50313V7.50276V7.50239V7.50201V7.50164V7.50127V7.50089V7.50052V7.50015V7.49978V7.4994V7.49903V7.49866V7.49828V7.49791V7.49754V7.49717V7.49679V7.49642V7.49605V7.49568V7.4953V7.49493V7.49456V7.49418V7.49381V7.49344V7.49307V7.49269V7.49232V7.49195V7.49157V7.4912V7.49083V7.49046V7.49008V7.48971V7.48934V7.48897V7.48859V7.48822V7.48785V7.48747V7.4871V7.48673V7.48636V7.48598V7.48561V7.48524V7.48486V7.48449V7.48412V7.48375V7.48337V7.483V7.48263V7.48225V7.48188V7.48151V7.48114V7.48076V7.48039V7.48002V7.47965V7.47927V7.4789V7.47853V7.47815V7.47778V7.47741V7.47704V7.47666V7.47629V7.47592V7.47554V7.47517V7.4748V7.47443V7.47405V7.47368V7.47331V7.47293V7.47256V7.47219V7.47182V7.47144V7.47107V7.4707V7.47033V7.46995V7.46958V7.46921V7.46883V7.46846V7.46809V7.46772V7.46734V7.46697V7.4666V7.46622V7.46585V7.46548V7.46511V7.46473V7.46436V7.46399V7.46361V7.46324V7.46287V7.4625V7.46212V7.46175V7.46138V7.46101V7.46063V7.46026V7.45989V7.45951V7.45914V7.45877V7.4584V7.45802V7.45765V7.45728V7.4569V7.45653V7.45616V7.45579V7.45541V7.45504V7.45467V7.4543V7.45392V7.45355V7.45318V7.4528V7.45243V7.45206V7.45169V7.45131V7.45094V7.45057V7.45019V7.44982V7.44945V7.44908V7.4487V7.44833V7.44796V7.44759V7.44721V7.44684V7.44647V7.44609V7.44572V7.44535V7.44498V7.4446V7.44423V7.44386V7.44348V7.44311V7.44274V7.44237V7.44199V7.44162V7.44125V7.44087V7.4405V7.44013V7.43976V7.43938V7.43901V7.43864V7.43827V7.43789V7.43752V7.43715V7.43677V7.4364V7.43603V7.43566V7.43528V7.43491V7.43454V7.43416V7.43379V7.43342V7.43305V7.43267V7.4323V7.43193V7.43155V7.43118V7.43081V7.43044V7.43006V7.42969V7.42932V7.42895V7.42857V7.4282V7.42783V7.42745V7.42708V7.42671V7.42634V7.42596V7.42559V7.42522V7.42484V7.42447V7.4241V7.42373V7.42335V7.42298V7.42261V7.42224V7.42186V7.42149V7.42112V7.42074V7.42037V7.42V7.41963V7.41925V7.41888V7.41851V7.41813V7.41776V7.41739V7.41702V7.41664V7.41627V7.4159V7.41552V7.41515V7.41478V7.41441V7.41403V7.41366V7.41329V7.41292V7.41254V7.41217V7.4118V7.41142V7.41105V7.41068V7.41031V7.40993V7.40956V7.40919V7.40881V7.40844V7.40807V7.4077V7.40732V7.40695V7.40658V7.40621V7.40583V7.40546V7.40509V7.40471V7.40434V7.40397V7.4036V7.40322V7.40285V7.40248V7.4021V7.40173V7.40136V7.40099V7.40061V7.40024V7.39987V7.3995V7.39912V7.39875V7.39838V7.398V7.39763V7.39726V7.39689V7.39651V7.39614V7.39577V7.39539V7.39502V7.39465V7.39428V7.3939V7.39353V7.39316V7.39279V7.39241V7.39204V7.39167V7.39129V7.39092V7.39055V7.39018V7.3898V7.38943V7.38906V7.38868V7.38831V7.38794V7.38757V7.38719V7.38682V7.38645V7.38607V7.3857V7.38533V7.38496V7.38458V7.38421V7.38384V7.38347V7.38309V7.38272V7.38235V7.38197V7.3816V7.38123V7.38086V7.38048V7.38011V7.37974V7.37936V7.37899V7.37862V7.37825V7.37787V7.3775V7.37713V7.37675V7.37638V7.37601V7.37564V7.37526V7.37489V7.37452V7.37415V7.37377V7.3734V7.37303V7.37265V7.37228V7.37191V7.37154V7.37116V7.37079V7.37042V7.37004V7.36967V7.3693V7.36893V7.36855V7.36818V7.36781V7.36743V7.36706V7.36669V7.36632V7.36594V7.36557V7.3652V7.36483V7.36445V7.36408V7.36371V7.36333V7.36296V7.36259V7.36222V7.36184V7.36147V7.3611V7.36072V7.36035V7.35998V7.35961V7.35923V7.35886V7.35849V7.35812V7.35774V7.35737V7.357V7.35662V7.35625V7.35588V7.35551V7.35513V7.35476V7.35439V7.35401V7.35364V7.35327V7.3529V7.35252V7.35215V7.35178V7.35141V7.35103V7.35066V7.35029V7.34991V7.34954V7.34917V7.3488V7.34842V7.34805V7.34768V7.3473V7.34693V7.34656V7.34619V7.34581V7.34544V7.34507V7.3447V7.34432V7.34395V7.34358V7.3432V7.34283V7.34246V7.34209V7.34171V7.34134V7.34097V7.34059V7.34022V7.33985V7.33948V7.3391V7.33873V7.33836V7.33798V7.33761V7.33724V7.33687V7.33649V7.33612V7.33575V7.33538V7.33523C0.675433 3.51645 3.38436 0.6 6.54564 0.6C8.08033 0.6 9.49223 1.28023 10.5581 2.40959L10.9945 2.87194L11.4308 2.40959C12.4967 1.28023 13.9086 0.6 15.4433 0.6C18.6042 0.6 21.3138 3.51618 21.4 7.33604V7.33612V7.33649V7.33687V7.33724V7.33761V7.33798V7.33836V7.33873V7.3391V7.33948V7.33985V7.34022V7.34059V7.34097V7.34134V7.34171V7.34209V7.34246V7.34283V7.3432V7.34358V7.34395V7.34432V7.3447V7.34507V7.34544V7.34581V7.34619V7.34656V7.34693V7.3473V7.34768V7.34805V7.34842V7.3488V7.34917V7.34954V7.34991V7.35029V7.35066V7.35103V7.35141V7.35178V7.35215V7.35252V7.3529V7.35327V7.35364V7.35401V7.35439V7.35476V7.35513V7.35551V7.35588V7.35625V7.35662V7.357V7.35737V7.35774V7.35812V7.35849V7.35886V7.35923V7.35961V7.35998V7.36035V7.36072V7.3611V7.36147V7.36184V7.36222V7.36259V7.36296V7.36333V7.36371V7.36408V7.36445V7.36483V7.3652V7.36557V7.36594V7.36632V7.36669V7.36706V7.36743V7.36781V7.36818V7.36855V7.36893V7.3693V7.36967V7.37004V7.37042V7.37079V7.37116V7.37154V7.37191V7.37228V7.37265V7.37303V7.3734V7.37377V7.37415V7.37452V7.37489V7.37526V7.37564V7.37601V7.37638V7.37675V7.37713V7.3775V7.37787V7.37825V7.37862V7.37899V7.37936V7.37974V7.38011V7.38048V7.38086V7.38123V7.3816V7.38197V7.38235V7.38272V7.38309V7.38347V7.38384V7.38421V7.38458V7.38496V7.38533V7.3857V7.38607V7.38645V7.38682V7.38719V7.38757V7.38794V7.38831V7.38868V7.38906V7.38943V7.3898V7.39018V7.39055V7.39092V7.39129V7.39167V7.39204V7.39241V7.39279V7.39316V7.39353V7.3939V7.39428V7.39465V7.39502V7.39539V7.39577V7.39614V7.39651V7.39689V7.39726V7.39763V7.398V7.39838V7.39875V7.39912V7.3995V7.39987V7.40024V7.40061V7.40099V7.40136V7.40173V7.4021V7.40248V7.40285V7.40322V7.4036V7.40397V7.40434V7.40471V7.40509V7.40546V7.40583V7.40621V7.40658V7.40695V7.40732V7.4077V7.40807V7.40844V7.40881V7.40919V7.40956V7.40993V7.41031V7.41068V7.41105V7.41142V7.4118V7.41217V7.41254V7.41292V7.41329V7.41366V7.41403V7.41441V7.41478V7.41515V7.41552V7.4159V7.41627V7.41664V7.41702V7.41739V7.41776V7.41813V7.41851V7.41888V7.41925V7.41963V7.42V7.42037V7.42074V7.42112V7.42149V7.42186V7.42224V7.42261V7.42298V7.42335V7.42373V7.4241V7.42447V7.42484V7.42522V7.42559V7.42596V7.42634V7.42671V7.42708V7.42745V7.42783V7.4282V7.42857V7.42895V7.42932V7.42969V7.43006V7.43044V7.43081V7.43118V7.43155V7.43193V7.4323V7.43267V7.43305V7.43342V7.43379V7.43416V7.43454V7.43491V7.43528V7.43566V7.43603V7.4364V7.43677V7.43715V7.43752V7.43789V7.43827V7.43864V7.43901V7.43938V7.43976V7.44013V7.4405V7.44087V7.44125V7.44162V7.44199V7.44237V7.44274V7.44311V7.44348V7.44386V7.44423V7.4446V7.44498V7.44535V7.44572V7.44609V7.44647V7.44684V7.44721V7.44759V7.44796V7.44833V7.4487V7.44908V7.44945V7.44982V7.45019V7.45057V7.45094V7.45131V7.45169V7.45206V7.45243V7.4528V7.45318V7.45355V7.45392V7.4543V7.45467V7.45504V7.45541V7.45579V7.45616V7.45653V7.4569V7.45728V7.45765V7.45802V7.4584V7.45877V7.45914V7.45951V7.45989V7.46026V7.46063V7.46101V7.46138V7.46175V7.46212V7.4625V7.46287V7.46324V7.46361V7.46399V7.46436V7.46473V7.46511V7.46548V7.46585V7.46622V7.4666V7.46697V7.46734V7.46772V7.46809V7.46846V7.46883V7.46921V7.46958V7.46995V7.47033V7.4707V7.47107V7.47144V7.47182V7.47219V7.47256V7.47293V7.47331V7.47368V7.47405V7.47443V7.4748V7.47517V7.47554V7.47592V7.47629V7.47666V7.47704V7.47741V7.47778V7.47815V7.47853V7.4789V7.47927V7.47965V7.48002V7.48039V7.48076V7.48114V7.48151V7.48188V7.48225V7.48263V7.483V7.48337V7.48375V7.48412V7.48449V7.48486V7.48524V7.48561V7.48598V7.48636V7.48673V7.4871V7.48747V7.48785V7.48822V7.48859V7.48897V7.48934V7.48971V7.49008V7.49046V7.49083V7.4912V7.49157V7.49195V7.49232V7.49269V7.49307V7.49344V7.49381V7.49418V7.49456V7.49493V7.4953V7.49568V7.49605V7.49642V7.49679V7.49717V7.49754V7.49791V7.49828V7.49866V7.49903V7.4994V7.49978V7.50015V7.50052V7.50089V7.50127V7.50164V7.50201V7.50239V7.50276V7.50313V7.5035V7.50388V7.50425V7.50462V7.50499V7.50537V7.50574V7.50611V7.50649V7.50686V7.50723V7.5076V7.50798V7.50835V7.50872V7.5091V7.50947V7.50984V7.51021V7.51059V7.51096V7.51133V7.51171V7.51208V7.51245V7.51282V7.5132V7.51357V7.51394V7.51431V7.51469V7.51506V7.51543V7.51581V7.51618V7.51655V7.51692V7.5173V7.51767V7.51804V7.51842V7.51879V7.51916V7.51953V7.51991V7.52028V7.52065V7.52103V7.5214V7.52177V7.52214V7.52252V7.52289V7.52326V7.52363V7.52401V7.52438V7.52475V7.52513V7.5255V7.52587V7.52624V7.52662V7.52699V7.52736V7.52774V7.52811V7.52848V7.52885V7.52923V7.5296V7.52997V7.53034V7.53072V7.53109V7.53146V7.53184V7.53221V7.53258V7.53295V7.53333V7.5337V7.53407V7.53445V7.53482V7.53519V7.53556V7.53594V7.53631V7.53668V7.53706V7.53743V7.5378V7.53817V7.53855V7.53892V7.53929V7.53966V7.54004V7.54041V7.54078V7.54116V7.54153V7.5419V7.54227V7.54265V7.54302V7.54339V7.54377V7.54414V7.54451V7.54488V7.54526V7.54563V7.546V7.54637V7.54675V7.54712V7.54749V7.54787V7.54824V7.54861V7.54898V7.54936V7.54973V7.5501V7.55048V7.55085V7.55122V7.55159V7.55197V7.55234V7.55271V7.55309V7.55346V7.55383V7.5542V7.55458V7.55495V7.55532V7.5557V7.55607V7.55644V7.55681V7.55719V7.55756V7.55793V7.5583V7.55868V7.55905V7.55942V7.5598V7.56017V7.56054V7.56091V7.56129V7.56166V7.56203V7.56241V7.56278V7.56315V7.56352V7.5639V7.56427V7.56464V7.56501V7.56539V7.56576V7.56613V7.56651V7.56688V7.56725V7.56762V7.568V7.56837V7.56874V7.56912V7.56949V7.56986V7.57023V7.57061V7.57098V7.57135V7.57172V7.5721V7.57247V7.57284V7.57322V7.57359V7.57396V7.57433V7.57471V7.57508V7.57545V7.57583V7.5762V7.57657V7.57694V7.57732V7.57769V7.57806V7.57844V7.57881V7.57918V7.57955V7.57993V7.5803V7.58067V7.58104V7.58142V7.58179V7.58216V7.58254V7.58291V7.58328V7.58365V7.58403V7.5844V7.58477V7.58515V7.58552V7.58589V7.58626V7.58664V7.58701V7.58738V7.58776V7.58813V7.5885V7.58887V7.58925V7.58962V7.58999V7.59036V7.59074V7.59111V7.59148V7.59186V7.59223V7.5926V7.59297V7.59335V7.59372V7.59409V7.59447V7.59484V7.59521V7.59558V7.59596V7.59633V7.5967V7.59707V7.59745V7.59782V7.59819V7.59857V7.59894V7.59931V7.59968V7.60006V7.60043V7.6008V7.60118V7.60155V7.60192V7.60229V7.60267V7.60304V7.60341V7.60379V7.60416V7.60453V7.6049V7.60528V7.60565V7.60602V7.60639V7.60677V7.60714V7.60751V7.60789V7.60826V7.60863V7.609V7.60938V7.60975V7.61012V7.6105V7.61087V7.61124V7.61161V7.61199V7.61236V7.61273V7.61311V7.61348V7.61385V7.61422V7.6146V7.61497V7.61534V7.61572V7.61609V7.61646V7.61683V7.61721V7.61758V7.61795V7.61832V7.6187V7.61907V7.61944V7.61982V7.62019V7.62056V7.62093V7.62131V7.62168V7.62205V7.62243V7.6228V7.62317V7.62354V7.62392V7.62429V7.62466V7.62503V7.62541V7.62578V7.62615V7.62653V7.6269V7.62727V7.62764V7.62802V7.62839V7.62876V7.62914V7.62951V7.62988V7.63025V7.63063V7.631V7.63137V7.63174V7.63212V7.63249V7.63286V7.63324V7.63361V7.63398V7.63435V7.63473V7.6351V7.63547V7.63585V7.63622V7.63659V7.63696V7.63734V7.63771V7.63808V7.63846V7.63883V7.6392V7.63957V7.63995V7.64032V7.64069V7.64106V7.64144V7.64181V7.64218V7.64256V7.64293V7.6433V7.64367V7.64405V7.64442V7.64479V7.64517V7.64554V7.64591V7.64628V7.64666V7.64703V7.6474V7.64778V7.64815V7.64852V7.64889V7.64927V7.64964V7.65001V7.65038V7.65076V7.65113V7.6515V7.65188V7.65225V7.65262V7.65299V7.65337V7.65374V7.65411V7.65449V7.65486V7.65523V7.6556V7.65598V7.65635V7.65672V7.65709V7.65747V7.65784V7.65821V7.65859V7.65896V7.65933V7.6597V7.66008V7.66045V7.66082V7.6612V7.66157V7.66194V7.66231V7.66269V7.66306V7.66343V7.66381V7.66418V7.66455V7.66492V7.6653V7.66567V7.66604V7.66641V7.66679V7.66716V7.66753V7.66791V7.66828V7.66865V7.66902V7.6694V7.66977V7.67014V7.67052V7.67089V7.67126V7.67163V7.67201V7.67238V7.67275V7.67313V7.6735V7.67387V7.67424V7.67462V7.67499V7.67536V7.67573V7.67611V7.67648V7.67685V7.67723V7.6776V7.67797V7.67834V7.67872V7.67909V7.67946V7.67984V7.68021V7.68058V7.68095V7.68133V7.6817V7.68207V7.68245V7.68282V7.68319V7.68356V7.68394V7.68431V7.68468V7.68505V7.68543V7.6858V7.68617V7.68655V7.68692V7.68729V7.68766V7.68804V7.68841V7.68878V7.68916V7.68953V7.6899V7.69027V7.69065V7.69102V7.69139V7.69176V7.69214V7.69251V7.69288V7.69326V7.69363V7.694V7.69437V7.69475V7.69512V7.69549V7.69587V7.69624V7.69661V7.69698V7.69736V7.69773V7.6981V7.69848V7.69885V7.69922V7.69959V7.69997V7.70034V7.70071V7.70108V7.70146V7.70183V7.7022V7.70258V7.70295V7.70332V7.70369V7.70407V7.70444V7.70481V7.70519V7.70556V7.70593V7.7063V7.70668V7.70705V7.70714C21.3629 10.4452 19.4288 13.0459 17.0987 15.168C14.7924 17.2682 12.2287 18.7815 11.1937 19.3501Z" stroke="#DB504A" stroke-width="1.2"/>
</svg>
